# Blender v2.77 (sub 0) OBJ File: 'Toll_zhuozhou_south.blend'
# www.blender.org
mtllib cameraType01.mtl
o Cube.002_Cube.003
v -0.516613 2.677590 0.434715
v -0.513497 2.645956 0.434715
v -0.504269 2.615536 0.434715
v -0.489285 2.587502 0.434715
v -0.469119 2.562930 0.434715
v -0.444547 2.542764 0.434715
v -0.416512 2.527779 0.434715
v -0.386093 2.518552 0.434715
v -0.504269 2.677590 0.372662
v -0.501391 2.645956 0.373854
v -0.492866 2.615536 0.377385
v -0.479022 2.587502 0.383120
v -0.460391 2.562930 0.390837
v -0.437689 2.542764 0.400240
v -0.411789 2.527779 0.410968
v -0.383685 2.518552 0.422609
v -0.469119 2.677590 0.320055
v -0.466916 2.645956 0.322258
v -0.460391 2.615536 0.328783
v -0.449795 2.587502 0.339379
v -0.435536 2.562930 0.353638
v -0.418161 2.542764 0.371014
v -0.398337 2.527779 0.390837
v -0.376828 2.518552 0.412346
v -0.416512 2.677590 0.284905
v -0.415320 2.645956 0.287783
v -0.411789 2.615536 0.296308
v -0.406054 2.587502 0.310152
v -0.398337 2.562930 0.328783
v -0.388934 2.542764 0.351485
v -0.378206 2.527779 0.377385
v -0.366565 2.518552 0.405489
v -0.577480 2.813158 0.522392
v -0.525152 2.813158 0.596721
v -0.354459 2.677590 0.272561
v -0.354459 2.645956 0.275677
v -0.354459 2.615536 0.284905
v -0.354459 2.587502 0.299889
v -0.354459 2.562930 0.320055
v -0.354459 2.542764 0.344627
v -0.354459 2.527779 0.372662
v -0.354459 2.518552 0.403081
v -0.446837 2.813158 0.646386
v -0.354459 2.813158 0.663827
v -0.262080 2.813158 0.646387
v -0.183766 2.813158 0.596721
v -0.131438 2.813158 0.522392
v -0.113062 2.813158 0.434715
v -0.131438 2.813158 0.347038
v -0.292405 2.677590 0.284905
v -0.293597 2.645956 0.287783
v -0.297129 2.615536 0.296308
v -0.302863 2.587502 0.310152
v -0.310580 2.562930 0.328783
v -0.319984 2.542764 0.351485
v -0.330712 2.527779 0.377385
v -0.342353 2.518552 0.405489
v -0.183766 2.813158 0.272709
v -0.262080 2.813158 0.223044
v -0.354459 2.813158 0.205604
v -0.446837 2.813158 0.223044
v -0.525152 2.813158 0.272709
v -0.577480 2.813158 0.347038
v -0.595855 2.813158 0.434715
v -0.239799 2.677590 0.320055
v -0.242002 2.645956 0.322258
v -0.248527 2.615536 0.328783
v -0.259122 2.587502 0.339379
v -0.273382 2.562930 0.353638
v -0.290757 2.542764 0.371014
v -0.310580 2.527779 0.390837
v -0.332090 2.518552 0.412346
v -0.583570 2.749054 0.434715
v -0.566130 2.749054 0.347038
v -0.516465 2.749054 0.272709
v -0.442136 2.749054 0.223044
v -0.354459 2.749054 0.205604
v -0.266782 2.749054 0.223044
v -0.192453 2.749054 0.272709
v -0.204648 2.677590 0.372662
v -0.207527 2.645956 0.373854
v -0.216052 2.615536 0.377385
v -0.229896 2.587502 0.383120
v -0.248527 2.562930 0.390837
v -0.271228 2.542764 0.400240
v -0.297129 2.527779 0.410968
v -0.325232 2.518552 0.422609
v -0.142788 2.749054 0.347038
v -0.125348 2.749054 0.434715
v -0.142788 2.749054 0.522392
v -0.192453 2.749054 0.596721
v -0.266782 2.749054 0.646387
v -0.354459 2.749054 0.663827
v -0.442136 2.749054 0.646386
v -0.192305 2.677590 0.434715
v -0.195421 2.645956 0.434715
v -0.204648 2.615536 0.434715
v -0.219633 2.587502 0.434715
v -0.239799 2.562930 0.434715
v -0.264371 2.542764 0.434715
v -0.292405 2.527779 0.434715
v -0.322824 2.518552 0.434715
v -0.516465 2.749054 0.596721
v -0.566130 2.749054 0.522392
v -0.526274 2.710035 0.505883
v -0.485960 2.710035 0.566217
v -0.425627 2.710035 0.606530
v -0.354459 2.710035 0.620686
v -0.283291 2.710035 0.606530
v -0.204648 2.677590 0.496769
v -0.207527 2.645956 0.495577
v -0.216052 2.615536 0.492045
v -0.229896 2.587502 0.486311
v -0.248527 2.562930 0.478594
v -0.271228 2.542764 0.469191
v -0.297129 2.527779 0.458462
v -0.325232 2.518552 0.446821
v -0.222957 2.710035 0.566217
v -0.182644 2.710035 0.505883
v -0.168488 2.710035 0.434715
v -0.182644 2.710035 0.363547
v -0.222957 2.710035 0.303214
v -0.283291 2.710035 0.262901
v -0.354459 2.710035 0.248744
v -0.239799 2.677590 0.549376
v -0.242002 2.645956 0.547172
v -0.248527 2.615536 0.540648
v -0.259122 2.587502 0.530052
v -0.273382 2.562930 0.515792
v -0.290757 2.542764 0.498417
v -0.310580 2.527779 0.478594
v -0.332090 2.518552 0.457084
v -0.425627 2.710035 0.262901
v -0.485960 2.710035 0.303214
v -0.526274 2.710035 0.363547
v -0.540430 2.710035 0.434715
v -0.540430 2.698189 0.434715
v -0.526274 2.698189 0.363547
v -0.485960 2.698189 0.303214
v -0.292405 2.677590 0.584526
v -0.293597 2.645956 0.581648
v -0.297129 2.615536 0.573123
v -0.302863 2.587502 0.559278
v -0.310580 2.562930 0.540648
v -0.319984 2.542764 0.517946
v -0.330712 2.527779 0.492045
v -0.342353 2.518552 0.463942
v -0.425627 2.698189 0.262901
v -0.354459 2.698189 0.248744
v -0.283291 2.698189 0.262901
v -0.222957 2.698189 0.303214
v -0.182644 2.698189 0.363547
v -0.168488 2.698189 0.434715
v -0.182644 2.698189 0.505883
v -0.354459 2.677590 0.596869
v -0.354459 2.645956 0.593754
v -0.354459 2.615536 0.584526
v -0.354459 2.587502 0.569541
v -0.354459 2.562930 0.549376
v -0.354459 2.542764 0.524803
v -0.354459 2.527779 0.496769
v -0.354459 2.518552 0.466350
v -0.222957 2.698189 0.566217
v -0.283291 2.698189 0.606530
v -0.354459 2.698189 0.620686
v -0.425627 2.698189 0.606530
v -0.485960 2.698189 0.566217
v -0.526274 2.698189 0.505883
v -0.504269 2.698190 0.496769
v -0.416512 2.677590 0.584526
v -0.415320 2.645956 0.581647
v -0.411789 2.615536 0.573122
v -0.406054 2.587502 0.559278
v -0.398337 2.562930 0.540648
v -0.388934 2.542764 0.517946
v -0.378206 2.527779 0.492045
v -0.366565 2.518552 0.463942
v -0.469119 2.698190 0.549375
v -0.416512 2.698190 0.584526
v -0.354459 2.698190 0.596869
v -0.292405 2.698190 0.584526
v -0.239799 2.698190 0.549376
v -0.204648 2.698190 0.496769
v -0.192305 2.698190 0.434715
v -0.204648 2.698190 0.372662
v -0.469119 2.677590 0.549375
v -0.466916 2.645956 0.547172
v -0.460391 2.615536 0.540647
v -0.449795 2.587502 0.530052
v -0.435536 2.562930 0.515792
v -0.418161 2.542764 0.498417
v -0.398337 2.527779 0.478594
v -0.376828 2.518552 0.457084
v -0.354459 2.515436 0.434715
v -0.239799 2.698190 0.320055
v -0.292405 2.698190 0.284905
v -0.354459 2.698190 0.272561
v -0.416512 2.698190 0.284905
v -0.469119 2.698190 0.320055
v -0.504269 2.698190 0.372662
v -0.516613 2.698190 0.434715
v -0.504269 2.677590 0.496769
v -0.501391 2.645956 0.495577
v -0.492866 2.615536 0.492045
v -0.479022 2.587502 0.486311
v -0.460391 2.562930 0.478594
v -0.437689 2.542764 0.469190
v -0.411789 2.527779 0.458462
v -0.383685 2.518552 0.446821
vn -0.3930 -0.9195 0.0000
vn -0.5639 -0.8258 0.0000
vn -0.5210 -0.8258 -0.2158
vn -0.3631 -0.9195 -0.1504
vn -0.2068 -0.9784 0.0000
vn -0.1910 -0.9784 -0.0791
vn 0.0000 -1.0000 0.0000
vn -0.9812 -0.1928 0.0000
vn -0.9988 -0.0488 0.0000
vn -0.9228 -0.0488 -0.3822
vn -0.9065 -0.1928 -0.3755
vn -0.9256 -0.3784 0.0000
vn -0.8552 -0.3784 -0.3542
vn -0.8351 -0.5500 0.0000
vn -0.7716 -0.5500 -0.3196
vn -0.7131 -0.7010 0.0000
vn -0.6588 -0.7010 -0.2729
vn -0.5042 -0.7010 -0.5042
vn -0.3987 -0.8258 -0.3987
vn -0.2779 -0.9195 -0.2779
vn -0.1462 -0.9784 -0.1462
vn -0.7063 -0.0488 -0.7063
vn -0.6938 -0.1928 -0.6938
vn -0.6545 -0.3784 -0.6545
vn -0.5905 -0.5500 -0.5905
vn -0.3822 -0.0488 -0.9228
vn -0.3755 -0.1928 -0.9065
vn -0.3542 -0.3784 -0.8552
vn -0.3196 -0.5500 -0.7716
vn -0.2729 -0.7010 -0.6588
vn -0.2158 -0.8258 -0.5210
vn -0.1504 -0.9195 -0.3631
vn -0.0791 -0.9784 -0.1910
vn 0.0000 -0.7010 -0.7131
vn 0.0000 -0.8258 -0.5639
vn 0.0000 -0.9195 -0.3930
vn 0.0000 -0.9784 -0.2068
vn 0.0000 -0.0488 -0.9988
vn 0.0000 -0.1928 -0.9812
vn 0.0000 -0.3784 -0.9256
vn 0.0000 -0.5500 -0.8351
vn 0.3755 -0.1928 -0.9065
vn 0.3542 -0.3784 -0.8552
vn 0.3196 -0.5500 -0.7716
vn 0.2729 -0.7010 -0.6588
vn 0.2158 -0.8258 -0.5210
vn 0.1504 -0.9195 -0.3631
vn 0.0791 -0.9784 -0.1910
vn 0.0000 1.0000 0.0000
vn 0.3822 -0.0488 -0.9228
vn 0.3987 -0.8258 -0.3987
vn 0.2779 -0.9195 -0.2779
vn -0.9059 -0.1548 0.3942
vn -0.6866 -0.0921 0.7212
vn -0.7034 -0.0964 0.7043
vn -0.9122 -0.1570 0.3784
vn 0.1462 -0.9784 -0.1462
vn 0.0000 -0.0071 -1.0000
vn -0.3668 -0.0315 -0.9298
vn -0.3821 -0.0336 -0.9235
vn -0.6866 -0.0921 -0.7212
vn -0.7034 -0.0964 -0.7043
vn 0.7063 -0.0488 -0.7063
vn 0.6938 -0.1928 -0.6938
vn 0.9059 -0.1548 -0.3942
vn 0.6866 -0.0921 -0.7212
vn 0.7034 -0.0964 -0.7043
vn 0.9122 -0.1570 -0.3784
vn 0.6545 -0.3784 -0.6545
vn 0.3668 -0.0315 -0.9298
vn 0.3821 -0.0336 -0.9235
vn 0.5905 -0.5500 -0.5905
vn -0.3668 -0.0315 0.9298
vn -0.0000 -0.0071 1.0000
vn -0.3821 -0.0336 0.9235
vn 0.5042 -0.7010 -0.5042
vn 0.3668 -0.0315 0.9298
vn 0.3821 -0.0336 0.9235
vn 0.6866 -0.0921 0.7212
vn 0.9059 -0.1548 0.3942
vn 0.9122 -0.1570 0.3784
vn 0.7034 -0.0964 0.7043
vn -0.9059 -0.1548 -0.3942
vn -0.9122 -0.1570 -0.3784
vn 0.8552 -0.3784 -0.3542
vn 0.7716 -0.5500 -0.3196
vn 0.9834 -0.1813 -0.0000
vn 0.6588 -0.7010 -0.2729
vn -0.9834 -0.1813 0.0000
vn 0.5210 -0.8258 -0.2158
vn 0.3631 -0.9195 -0.1504
vn 0.1910 -0.9784 -0.0791
vn 0.9228 -0.0488 -0.3822
vn 0.9065 -0.1928 -0.3755
vn 0.0000 -0.7416 -0.6708
vn -0.2567 -0.7416 -0.6197
vn 0.3930 -0.9195 0.0000
vn 0.2068 -0.9784 0.0000
vn 0.4743 -0.7416 -0.4743
vn 0.2567 -0.7416 -0.6197
vn 0.6197 -0.7416 0.2567
vn 0.6708 -0.7416 0.0000
vn 0.9988 -0.0488 0.0000
vn 0.9812 -0.1928 0.0000
vn -0.2567 -0.7416 0.6197
vn -0.0000 -0.7416 0.6708
vn 0.9256 -0.3784 0.0000
vn -0.4743 -0.7416 0.4743
vn 0.8351 -0.5500 0.0000
vn 0.4743 -0.7416 0.4743
vn 0.7131 -0.7010 0.0000
vn -0.6708 -0.7416 0.0000
vn -0.6197 -0.7416 0.2567
vn 0.5639 -0.8258 0.0000
vn -0.4743 -0.7416 -0.4743
vn -0.6197 -0.7416 -0.2567
vn 0.8552 -0.3784 0.3542
vn 0.7716 -0.5500 0.3196
vn 0.2567 -0.7416 0.6197
vn 0.6588 -0.7010 0.2729
vn 0.6197 -0.7416 -0.2567
vn 0.5210 -0.8258 0.2158
vn 0.3631 -0.9195 0.1504
vn 0.1910 -0.9784 0.0791
vn 0.9228 -0.0488 0.3822
vn 0.9065 -0.1928 0.3755
vn 0.2779 -0.9195 0.2779
vn 0.1462 -0.9784 0.1462
vn 0.3827 0.0000 0.9239
vn 0.7071 0.0000 0.7071
vn 1.0000 0.0000 0.0000
vn 0.9239 0.0000 -0.3827
vn 0.7063 -0.0488 0.7063
vn 0.6938 -0.1928 0.6938
vn 0.9239 0.0000 0.3827
vn 0.6545 -0.3784 0.6545
vn -0.3827 0.0000 0.9239
vn -0.0000 0.0000 1.0000
vn 0.5905 -0.5500 0.5905
vn -0.7071 0.0000 0.7071
vn 0.5042 -0.7010 0.5042
vn 0.3987 -0.8258 0.3987
vn -0.9239 0.0000 0.3827
vn -0.9239 0.0000 -0.3827
vn -1.0000 0.0000 0.0000
vn 0.3196 -0.5500 0.7716
vn 0.2729 -0.7010 0.6588
vn -0.7071 0.0000 -0.7071
vn 0.2158 -0.8258 0.5210
vn 0.1504 -0.9195 0.3631
vn 0.7071 0.0000 -0.7071
vn 0.0791 -0.9784 0.1910
vn -0.3827 0.0000 -0.9239
vn -0.0000 0.0000 -1.0000
vn 0.3822 -0.0488 0.9228
vn 0.3755 -0.1928 0.9065
vn 0.3827 0.0000 -0.9239
vn 0.3542 -0.3784 0.8552
vn 0.0000 -0.9784 0.2068
vn 0.0000 -0.0488 0.9988
vn 0.0000 -0.1928 0.9812
vn 0.0000 -0.3784 0.9256
vn 0.0000 -0.5500 0.8351
vn 0.0000 -0.7010 0.7131
vn 0.0000 -0.8258 0.5639
vn 0.0000 -0.9195 0.3930
vn -0.3196 -0.5500 0.7716
vn -0.2729 -0.7010 0.6588
vn -0.2158 -0.8258 0.5210
vn -0.1504 -0.9195 0.3631
vn -0.0791 -0.9784 0.1910
vn -0.3822 -0.0488 0.9228
vn -0.3755 -0.1928 0.9065
vn -0.3542 -0.3784 0.8552
vn -0.1462 -0.9784 0.1462
vn -0.7063 -0.0488 0.7063
vn -0.6938 -0.1928 0.6938
vn -0.6545 -0.3784 0.6545
vn -0.5905 -0.5500 0.5905
vn -0.5042 -0.7010 0.5042
vn -0.3987 -0.8258 0.3987
vn -0.2779 -0.9195 0.2779
vn -0.6588 -0.7010 0.2729
vn -0.5210 -0.8258 0.2158
vn -0.3631 -0.9195 0.1504
vn -0.1910 -0.9784 0.0791
vn -0.9228 -0.0488 0.3822
vn -0.9065 -0.1928 0.3755
vn -0.8552 -0.3784 0.3542
vn -0.7716 -0.5500 0.3196
usemtl None
s 1
f 7//1 6//2 14//3 15//4
f 8//5 7//1 15//4 16//6
f 194//7 8//5 16//6
f 2//8 1//9 9//10 10//11
f 3//12 2//8 10//11 11//13
f 4//14 3//12 11//13 12//15
f 5//16 4//14 12//15 13//17
f 6//2 5//16 13//17 14//3
f 14//3 13//17 21//18 22//19
f 15//4 14//3 22//19 23//20
f 16//6 15//4 23//20 24//21
f 194//7 16//6 24//21
f 10//11 9//10 17//22 18//23
f 11//13 10//11 18//23 19//24
f 12//15 11//13 19//24 20//25
f 13//17 12//15 20//25 21//18
f 18//23 17//22 25//26 26//27
f 19//24 18//23 26//27 27//28
f 20//25 19//24 27//28 28//29
f 21//18 20//25 28//29 29//30
f 22//19 21//18 29//30 30//31
f 23//20 22//19 30//31 31//32
f 24//21 23//20 31//32 32//33
f 194//7 24//21 32//33
f 30//31 29//30 39//34 40//35
f 31//32 30//31 40//35 41//36
f 32//33 31//32 41//36 42//37
f 194//7 32//33 42//37
f 26//27 25//26 35//38 36//39
f 27//28 26//27 36//39 37//40
f 28//29 27//28 37//40 38//41
f 29//30 28//29 38//41 39//34
f 37//40 36//39 51//42 52//43
f 38//41 37//40 52//43 53//44
f 39//34 38//41 53//44 54//45
f 40//35 39//34 54//45 55//46
f 41//36 40//35 55//46 56//47
f 42//37 41//36 56//47 57//48
f 43//49 44//49 61//49
f 194//7 42//37 57//48
f 36//39 35//38 50//50 51//42
f 56//47 55//46 70//51 71//52
f 104//53 103//54 34//55 33//56
f 57//48 56//47 71//52 72//57
f 77//58 76//59 61//60 60//58
f 76//59 75//61 62//62 61//60
f 194//7 57//48 72//57
f 51//42 50//50 65//63 66//64
f 88//65 79//66 58//67 49//68
f 52//43 51//42 66//64 67//69
f 78//70 77//58 60//58 59//71
f 53//44 52//43 67//69 68//72
f 94//73 93//74 44//74 43//75
f 54//45 53//44 68//72 69//76
f 93//74 92//77 45//78 44//74
f 55//46 54//45 69//76 70//51
f 91//79 90//80 47//81 46//82
f 75//61 74//83 63//84 62//62
f 68//72 67//69 82//85 83//86
f 89//87 88//65 49//68 48//87
f 69//76 68//72 83//86 84//88
f 73//89 104//53 33//56 64//89
f 70//51 69//76 84//88 85//90
f 92//77 91//79 46//82 45//78
f 71//52 70//51 85//90 86//91
f 90//80 89//87 48//87 47//81
f 72//57 71//52 86//91 87//92
f 74//83 73//89 64//89 63//84
f 103//54 94//73 43//75 34//55
f 194//7 72//57 87//92
f 66//64 65//63 80//93 81//94
f 79//66 78//70 59//71 58//67
f 67//69 66//64 81//94 82//85
f 124//95 133//96 76//96 77//95
f 87//92 86//91 101//97 102//98
f 122//99 123//100 78//100 79//99
f 119//101 120//102 89//102 90//101
f 194//7 87//92 102//98
f 81//94 80//93 95//103 96//104
f 107//105 108//106 93//106 94//105
f 82//85 81//94 96//104 97//107
f 106//108 107//105 94//105 103//108
f 83//86 82//85 97//107 98//109
f 118//110 119//101 90//101 91//110
f 84//88 83//86 98//109 99//111
f 136//112 105//113 104//113 73//112
f 85//90 84//88 99//111 100//114
f 134//115 135//116 74//116 75//115
f 86//91 85//90 100//114 101//97
f 98//109 97//107 112//117 113//118
f 109//119 118//110 91//110 92//119
f 99//111 98//109 113//118 114//120
f 121//121 122//99 79//99 88//121
f 100//114 99//111 114//120 115//122
f 108//106 109//119 92//119 93//106
f 101//97 100//114 115//122 116//123
f 123//100 124//95 77//95 78//100
f 102//98 101//97 116//123 117//124
f 135//116 136//112 73//112 74//116
f 120//102 121//121 88//121 89//102
f 194//7 102//98 117//124
f 96//104 95//103 110//125 111//126
f 133//96 134//115 75//115 76//96
f 97//107 96//104 111//126 112//117
f 105//113 106//108 103//108 104//113
f 117//124 116//123 131//127 132//128
f 164//129 163//130 118//130 109//129
f 153//131 152//132 121//132 120//131
f 194//7 117//124 132//128
f 111//126 110//125 125//133 126//134
f 154//135 153//131 120//131 119//135
f 112//117 111//126 126//134 127//136
f 166//137 165//138 108//138 107//137
f 113//118 112//117 127//136 128//139
f 167//140 166//137 107//137 106//140
f 114//120 113//118 128//139 129//141
f 165//138 164//129 109//129 108//138
f 115//122 114//120 129//141 130//142
f 168//143 167//140 106//140 105//143
f 116//123 115//122 130//142 131//127
f 138//144 137//145 136//145 135//144
f 137//145 168//143 105//143 136//145
f 129//141 128//139 143//146 144//147
f 139//148 138//144 135//144 134//148
f 130//142 129//141 144//147 145//149
f 163//130 154//135 119//135 118//130
f 131//127 130//142 145//149 146//150
f 152//132 151//151 122//151 121//132
f 132//128 131//127 146//150 147//152
f 148//153 139//148 134//148 133//153
f 149//154 148//153 133//153 124//154
f 194//7 132//128 147//152
f 126//134 125//133 140//155 141//156
f 151//151 150//157 123//157 122//151
f 127//136 126//134 141//156 142//158
f 150//157 149//154 124//154 123//157
f 128//139 127//136 142//158 143//146
f 200//7 201//7 137//7 138//7
f 169//7 178//7 167//7 168//7
f 194//7 147//152 162//159
f 141//156 140//155 155//160 156//161
f 197//7 198//7 148//7 149//7
f 142//158 141//156 156//161 157//162
f 180//7 181//7 164//7 165//7
f 143//146 142//158 157//162 158//163
f 196//7 197//7 149//7 150//7
f 144//147 143//146 158//163 159//164
f 182//7 183//7 154//7 163//7
f 145//149 144//147 159//164 160//165
f 195//7 196//7 150//7 151//7
f 146//150 145//149 160//165 161//166
f 185//7 195//7 151//7 152//7
f 147//152 146//150 161//166 162//159
f 159//164 158//163 173//167 174//168
f 184//7 185//7 152//7 153//7
f 160//165 159//164 174//168 175//169
f 198//7 199//7 139//7 148//7
f 161//166 160//165 175//169 176//170
f 201//7 169//7 168//7 137//7
f 162//159 161//166 176//170 177//171
f 179//7 180//7 165//7 166//7
f 183//7 184//7 153//7 154//7
f 194//7 162//159 177//171
f 156//161 155//160 170//172 171//173
f 178//7 179//7 166//7 167//7
f 157//162 156//161 171//173 172//174
f 199//7 200//7 138//7 139//7
f 158//163 157//162 172//174 173//167
f 181//7 182//7 163//7 164//7
f 194//7 177//171 193//175
f 171//173 170//172 186//176 187//177
f 9//10 1//9 201//145 200//144
f 172//174 171//173 187//177 188//178
f 125//133 110//125 183//135 182//130
f 173//167 172//174 188//178 189//179
f 186//176 170//172 179//137 178//140
f 174//168 173//167 189//179 190//180
f 50//50 35//38 197//154 196//157
f 175//169 174//168 190//180 191//181
f 65//63 50//50 196//157 195//151
f 176//170 175//169 191//181 192//182
f 170//172 155//160 180//138 179//137
f 177//171 176//170 192//182 193//175
f 80//93 65//63 195//151 185//132
f 140//155 125//133 182//130 181//129
f 191//181 190//180 206//183 207//184
f 25//26 17//22 199//148 198//153
f 192//182 191//181 207//184 208//185
f 110//125 95//103 184//131 183//135
f 193//175 192//182 208//185 209//186
f 35//38 25//26 198//153 197//154
f 155//160 140//155 181//129 180//138
f 194//7 193//175 209//186
f 187//177 186//176 202//187 203//188
f 1//9 202//187 169//143 201//145
f 188//178 187//177 203//188 204//189
f 202//187 186//176 178//140 169//143
f 189//179 188//178 204//189 205//190
f 17//22 9//10 200//144 199//148
f 190//180 189//179 205//190 206//183
f 95//103 80//93 185//132 184//131
f 204//189 203//188 2//8 3//12
f 205//190 204//189 3//12 4//14
f 206//183 205//190 4//14 5//16
f 207//184 206//183 5//16 6//2
f 208//185 207//184 6//2 7//1
f 209//186 208//185 7//1 8//5
f 194//7 209//186 8//5
f 203//188 202//187 1//9 2//8
f 46//49 47//49 49//49
f 48//49 49//49 47//49
f 58//49 59//49 46//49
f 60//49 61//49 44//49
f 62//49 63//49 33//49
f 64//49 33//49 63//49
f 34//49 43//49 62//49
f 44//49 45//49 60//49
f 46//49 49//49 58//49
f 59//49 45//49 46//49
f 62//49 33//49 34//49
f 43//49 61//49 62//49
f 59//49 60//49 45//49
