# Blender v2.77 (sub 0) OBJ File: 'Toll_zhuozhou_south.blend'
# www.blender.org
mtllib land.mtl
o Plane.001
v 41.550125 0.000001 -17.833508
v 46.892654 0.000003 -17.833508
v 46.892654 0.000001 -22.200500
v 41.550125 0.000001 -22.200500
v 41.550125 -0.000001 21.532188
v 46.892654 -0.000001 21.532188
v 46.892654 0.869729 17.186169
v 41.550125 1.186313 17.186169
v 46.892654 1.070249 12.840149
v 41.550125 1.453906 12.840149
v 46.892654 0.869730 8.494129
v 41.550125 1.186314 8.494129
v 46.892654 0.423254 4.148109
v 41.550125 0.622721 4.148109
v 46.892654 0.050422 -0.214342
v 41.550125 0.121910 -0.214326
v 46.892654 0.000000 -4.609619
v 41.550125 0.000000 -4.609619
v 46.892654 0.000001 -9.021969
v 41.550125 0.000001 -9.021969
v 46.892654 0.000001 -13.435297
v 41.550125 0.000001 -13.435297
v -54.697304 0.000001 -13.435297
v -49.272877 1.114009 -13.428993
v -49.272877 0.542129 -17.831850
v -54.697304 0.000001 -17.833508
v -43.930344 1.519514 -13.424751
v -43.930344 0.797622 -17.830528
v -38.587814 1.114009 -13.428993
v -38.587814 0.542130 -17.831850
v -33.245281 0.340226 -13.434627
v -33.245281 0.088388 -17.833450
v -27.902752 0.000001 -13.435297
v -27.902752 0.000001 -17.833508
v -22.560223 0.061452 -13.435281
v -22.560223 0.030669 -17.833504
v -17.217693 0.243139 -13.435079
v -17.217693 0.114786 -17.833475
v -11.875164 0.656508 -13.433324
v -11.875164 0.340310 -17.832983
v -6.532635 0.942727 -13.431063
v -6.532635 0.537186 -17.832018
v -1.190105 0.383726 -13.434480
v -1.190105 0.202043 -17.833233
v 4.152424 0.000001 -13.435297
v 4.152424 0.000001 -17.833508
v 9.494949 0.000001 -13.435297
v 9.494949 0.000001 -17.833508
v 14.837479 0.632782 -13.433778
v 14.837479 0.462264 -17.832655
v 20.180008 1.862543 -13.428054
v 20.180008 1.513581 -17.829151
v 25.522537 2.532872 -13.423414
v 25.522537 2.064528 -17.826611
v 30.865067 1.862543 -13.428054
v 30.865067 1.513581 -17.829151
v 36.207596 0.632783 -13.433778
v 36.207596 0.462264 -17.832655
v -54.697304 0.000001 -9.021969
v -49.272877 1.370849 -9.014758
v -43.930344 1.880678 -9.009569
v -38.587814 1.415222 -9.014270
v -33.245281 0.484113 -9.020963
v -27.902752 0.000001 -9.021969
v -22.560223 0.105507 -9.021928
v -17.217693 0.345555 -9.021590
v -11.875164 0.627424 -9.020645
v -6.532635 0.760100 -9.020014
v -1.190105 0.275724 -9.021661
v 4.152424 0.016698 -9.021968
v 9.494949 0.040370 -9.021962
v 14.837479 0.478944 -9.021416
v 20.180008 1.646040 -9.018440
v 25.522537 2.374734 -9.014921
v 30.865067 1.646041 -9.018440
v 36.207596 0.462264 -9.021465
v -54.697304 0.000000 -4.609619
v -49.272877 1.139171 -4.606421
v -43.930344 1.671639 -4.603349
v -38.587814 1.337043 -4.605162
v -33.245281 0.493629 -4.608937
v -27.902752 0.025137 -4.609617
v -22.560223 0.136220 -4.609573
v -17.217693 0.412664 -4.609248
v -11.875164 0.506858 -4.609089
v -6.532635 0.388689 -4.609359
v -1.190105 0.147310 -4.609564
v 4.152424 0.214570 -4.609490
v 9.494949 0.351321 -4.609273
v 14.837479 0.327783 -4.609498
v 20.180008 1.032495 -4.609374
v 25.522537 1.724480 -4.608471
v 30.865067 1.008670 -4.609410
v 36.207596 0.120095 -4.609619
v -54.697304 0.050422 -0.214342
v -49.272877 0.638561 -0.213916
v -43.930344 1.132313 -0.213119
v -38.587814 1.030670 -0.213144
v -33.245281 0.433208 -0.214100
v -27.902752 0.132161 -0.214322
v -22.560223 0.291669 -0.214240
v -17.217693 0.568372 -0.213993
v -11.875164 0.571918 -0.214019
v -6.532635 0.334961 -0.214263
v -1.190105 0.324308 -0.214214
v 4.152424 0.724549 -0.213664
v 9.494949 0.923749 -0.213245
v 14.837479 0.679067 -0.213938
v 20.180008 0.553505 -0.214301
v 25.522537 0.992710 -0.214335
v 30.865067 0.383041 -0.214182
v 36.207596 0.050422 -0.214339
v -54.697304 0.423254 4.148109
v -49.272877 0.237964 4.148109
v -43.930344 0.792119 4.148109
v -38.587814 0.956890 4.148109
v -33.245281 0.641648 4.148109
v -27.902752 0.309665 4.148109
v -22.560223 0.465043 4.148109
v -17.217693 0.723925 4.148109
v -11.875164 0.649275 4.148109
v -6.532635 0.355495 4.148109
v -1.190105 0.547041 4.148109
v 4.152424 1.138739 4.148109
v 9.494949 1.406103 4.148109
v 14.837479 1.046041 4.148109
v 20.180008 0.707782 4.148109
v 25.522537 0.723587 4.148109
v 30.865067 0.405720 4.148109
v 36.207596 0.423254 4.148109
v -54.697304 0.869730 8.494129
v -49.272877 0.254877 8.494129
v -43.930344 0.835305 8.494129
v -38.587814 1.137593 8.494129
v -33.245281 0.835305 8.494129
v -27.902752 0.441359 8.494129
v -22.560223 0.549329 8.494129
v -17.217693 0.758528 8.494129
v -11.875164 0.623756 8.494129
v -6.532635 0.324170 8.494129
v -1.190105 0.604868 8.494129
v 4.152424 1.232547 8.494129
v 9.494949 1.524405 8.494129
v 14.837479 1.115323 8.494129
v 20.180008 0.619902 8.494129
v 25.522537 0.433795 8.494129
v 30.865067 0.455337 8.494129
v 36.207596 0.869730 8.494129
v -54.697304 1.070249 12.840149
v -49.272877 0.241081 12.840149
v -43.930344 0.792369 12.840149
v -38.587814 1.094148 12.840149
v -33.245281 0.792369 12.840149
v -27.902752 0.378172 12.840149
v -22.560223 0.446407 12.840149
v -17.217693 0.608901 12.840149
v -11.875164 0.477130 12.840149
v -6.532635 0.236904 12.840149
v -1.190105 0.435867 12.840149
v 4.152424 0.939934 12.840149
v 9.494949 1.142448 12.840149
v 14.837479 0.844679 12.840149
v 20.180008 0.303651 12.840149
v 25.522537 0.044886 12.840149
v 30.865067 0.363607 12.840149
v 36.207596 1.070249 12.840149
v -54.697304 0.869729 17.186169
v -49.272877 0.157438 17.186169
v -43.930344 0.535415 17.186169
v -38.587814 0.750342 17.186169
v -33.245281 0.535415 17.186169
v -27.902752 0.193151 17.186169
v -22.560223 0.217243 17.186169
v -17.217693 0.319624 17.186169
v -11.875164 0.225226 17.186169
v -6.532635 0.084416 17.186169
v -1.190105 0.162882 17.186169
v 4.152424 0.469674 17.186169
v 9.494949 0.595046 17.186169
v 14.837479 0.422935 17.186169
v 20.180008 0.090745 17.186169
v 25.522537 -0.000001 17.186169
v 30.865067 0.265624 17.186169
v 36.207596 0.869729 17.186169
v -54.697304 -0.000001 21.532188
v -49.272877 -0.000001 21.532188
v -43.930347 -0.000001 21.532188
v -38.587818 -0.000001 21.532188
v -33.245289 -0.000001 21.532188
v -27.902760 -0.000001 21.532188
v -22.560223 -0.000001 21.532188
v -17.217693 -0.000001 21.532188
v -11.875164 -0.000001 21.532188
v -6.532635 -0.000001 21.532188
v -1.190105 -0.000001 21.532188
v 4.152424 -0.000741 21.532188
v 9.494949 -0.000001 21.532188
v 14.837479 -0.000741 21.532188
v 20.180008 -0.000001 21.532188
v 25.522537 -0.000001 21.532188
v 30.865067 -0.000001 21.532188
v 36.207596 -0.000001 21.532188
v -49.272877 0.000001 -22.200500
v -54.697304 0.000001 -22.200500
v -43.930344 0.000001 -22.200500
v -38.587814 0.000001 -22.200500
v -33.245281 0.000001 -22.200500
v -27.902752 0.000001 -22.200500
v -22.560223 0.000001 -22.200500
v -17.217693 0.000001 -22.200500
v -11.875164 0.000001 -22.200500
v -6.532635 0.000001 -22.200500
v -1.190105 0.000001 -22.200500
v 4.152424 0.000001 -22.200500
v 9.494949 0.000001 -22.200500
v 14.837479 0.000001 -22.200500
v 20.180008 0.000001 -22.200500
v 25.522537 0.000001 -22.200500
v 30.865065 0.000001 -22.200500
v 36.207596 0.000001 -22.200500
vn -0.0000 1.0000 0.0000
vn 0.0288 0.9727 0.2301
vn 0.0653 0.9964 0.0537
vn 0.0653 0.9964 -0.0537
vn 0.0479 0.9922 -0.1153
vn 0.0252 0.9947 -0.0996
vn 0.0067 0.9998 -0.0196
vn -0.1506 0.9865 -0.0641
vn -0.0610 0.9875 -0.1450
vn 0.0610 0.9875 -0.1450
vn 0.1136 0.9892 -0.0926
vn 0.0401 0.9988 -0.0286
vn -0.0086 1.0000 -0.0035
vn -0.0249 0.9995 -0.0181
vn -0.0596 0.9970 -0.0504
vn -0.0450 0.9956 -0.0817
vn 0.0832 0.9943 -0.0664
vn 0.0547 0.9983 -0.0206
vn -0.1019 0.9946 -0.0193
vn -0.2084 0.9763 -0.0576
vn -0.1130 0.9893 -0.0918
vn 0.1130 0.9893 -0.0918
vn 0.2084 0.9763 -0.0576
vn 0.1019 0.9946 -0.0193
vn -0.2231 0.9744 -0.0283
vn -0.0851 0.9939 -0.0696
vn 0.0810 0.9939 -0.0746
vn 0.1573 0.9863 -0.0497
vn 0.0769 0.9969 -0.0163
vn -0.0156 0.9999 -0.0050
vn -0.0394 0.9991 -0.0166
vn -0.0649 0.9979 -0.0083
vn -0.0392 0.9989 0.0240
vn 0.0971 0.9947 0.0328
vn 0.0600 0.9981 0.0103
vn -0.0022 1.0000 -0.0065
vn -0.0998 0.9949 0.0128
vn -0.2187 0.9749 0.0409
vn -0.1297 0.9907 0.0421
vn 0.1297 0.9907 0.0421
vn 0.2202 0.9745 0.0428
vn 0.1019 0.9946 0.0192
vn -0.2254 0.9739 0.0256
vn -0.0970 0.9940 0.0497
vn 0.0746 0.9967 0.0325
vn 0.1638 0.9865 0.0077
vn 0.0888 0.9960 -0.0039
vn -0.0203 0.9998 -0.0063
vn -0.0483 0.9988 -0.0111
vn -0.0352 0.9994 0.0061
vn -0.0014 0.9984 0.0557
vn 0.0677 0.9961 0.0564
vn 0.0179 0.9998 -0.0079
vn -0.0150 0.9982 -0.0576
vn -0.0388 0.9991 -0.0181
vn -0.1720 0.9814 0.0851
vn -0.1305 0.9814 0.1407
vn 0.1326 0.9808 0.1433
vn 0.1893 0.9759 0.1084
vn 0.0544 0.9978 0.0387
vn -0.1571 0.9863 0.0505
vn -0.0950 0.9886 0.1171
vn 0.0406 0.9946 0.0958
vn 0.1335 0.9902 0.0413
vn 0.0718 0.9974 -0.0053
vn -0.0253 0.9992 -0.0298
vn -0.0517 0.9980 -0.0353
vn -0.0091 0.9996 -0.0251
vn 0.0332 0.9994 -0.0013
vn 0.0236 0.9996 -0.0140
vn -0.0436 0.9960 -0.0778
vn -0.0312 0.9920 -0.1221
vn 0.0249 0.9942 -0.1045
vn -0.0541 0.9984 0.0145
vn -0.1043 0.9852 0.1357
vn 0.1217 0.9809 0.1515
vn 0.1132 0.9905 0.0783
vn 0.0045 1.0000 -0.0059
vn -0.0371 0.9993 0.0032
vn -0.0973 0.9917 0.0842
vn -0.0059 0.9989 0.0474
vn 0.0851 0.9963 -0.0154
vn 0.0591 0.9973 -0.0441
vn -0.0294 0.9988 -0.0402
vn -0.0500 0.9980 -0.0376
vn 0.0067 0.9996 -0.0267
vn 0.0496 0.9987 -0.0112
vn -0.0169 0.9995 -0.0279
vn -0.0922 0.9931 -0.0725
vn -0.0434 0.9938 -0.1021
vn 0.0562 0.9937 -0.0968
vn 0.0433 0.9973 -0.0596
vn -0.0425 0.9990 0.0132
vn 0.0864 0.9959 0.0281
vn 0.0294 0.9985 -0.0453
vn -0.0252 0.9947 -0.0996
vn 0.0735 0.9959 -0.0531
vn -0.1056 0.9944 -0.0069
vn -0.0437 0.9987 -0.0257
vn 0.0576 0.9974 -0.0430
vn 0.0677 0.9970 -0.0373
vn -0.0246 0.9994 -0.0248
vn -0.0438 0.9989 -0.0137
vn 0.0196 0.9998 -0.0010
vn 0.0554 0.9984 0.0065
vn -0.0442 0.9990 -0.0030
vn -0.1134 0.9934 -0.0173
vn -0.0522 0.9983 -0.0244
vn 0.0718 0.9972 -0.0215
vn 0.0778 0.9970 0.0021
vn 0.0159 0.9989 0.0434
vn 0.0277 0.9992 0.0276
vn -0.0403 0.9976 -0.0569
vn -0.0479 0.9922 -0.1153
vn 0.1319 0.9910 -0.0213
vn -0.1053 0.9944 0.0065
vn -0.0564 0.9984 0.0099
vn 0.0564 0.9984 0.0099
vn 0.0754 0.9971 0.0122
vn -0.0165 0.9997 0.0191
vn -0.0348 0.9990 0.0290
vn 0.0249 0.9991 0.0341
vn 0.0504 0.9984 0.0269
vn -0.0448 0.9986 0.0294
vn -0.1052 0.9931 0.0527
vn -0.0461 0.9959 0.0773
vn 0.0658 0.9950 0.0747
vn 0.0963 0.9931 0.0671
vn 0.0415 0.9959 0.0808
vn -0.0318 0.9980 0.0552
vn -0.1043 0.9945 -0.0124
vn -0.0653 0.9964 -0.0537
vn 0.1406 0.9895 0.0324
vn -0.0866 0.9955 0.0390
vn -0.0482 0.9965 0.0689
vn 0.0482 0.9965 0.0689
vn 0.0705 0.9962 0.0507
vn -0.0086 0.9988 0.0476
vn -0.0247 0.9979 0.0595
vn 0.0211 0.9978 0.0621
vn 0.0356 0.9983 0.0464
vn -0.0259 0.9985 0.0489
vn -0.0754 0.9935 0.0850
vn -0.0305 0.9928 0.1162
vn 0.0437 0.9929 0.1107
vn 0.0812 0.9940 0.0726
vn 0.0327 0.9990 0.0296
vn -0.0546 0.9984 0.0164
vn -0.1217 0.9920 0.0341
vn -0.0653 0.9964 0.0537
vn 0.0651 0.9910 0.1171
vn -0.0352 0.9962 0.0794
vn -0.0199 0.9890 0.1463
vn 0.0199 0.9890 0.1463
vn 0.0319 0.9960 0.0835
vn -0.0023 0.9989 0.0472
vn -0.0096 0.9981 0.0616
vn 0.0088 0.9980 0.0626
vn 0.0132 0.9993 0.0356
vn -0.0073 0.9996 0.0284
vn -0.0286 0.9969 0.0726
vn -0.0117 0.9925 0.1217
vn 0.0161 0.9931 0.1164
vn 0.0310 0.9978 0.0591
vn 0.0085 0.9999 0.0104
vn -0.0248 0.9992 0.0305
vn -0.0560 0.9900 0.1293
vn -0.0288 0.9727 0.2301
vn -0.0498 0.9968 -0.0619
vn -0.0236 0.9882 -0.1515
vn 0.0236 0.9882 -0.1515
vn 0.0423 0.9965 -0.0719
vn 0.0083 0.9999 -0.0101
vn -0.0029 1.0000 -0.0035
vn -0.0079 0.9998 -0.0167
vn -0.0211 0.9984 -0.0520
vn -0.0183 0.9948 -0.0999
vn 0.0312 0.9960 -0.0843
vn 0.0189 0.9996 -0.0231
vn -0.0432 0.9977 -0.0528
vn -0.0955 0.9709 -0.2195
vn -0.0476 0.9245 -0.3783
vn 0.0476 0.9245 -0.3783
vn 0.0955 0.9709 -0.2195
vn 0.0432 0.9977 -0.0528
usemtl None
s 1
f 1//1 2//1 3//1 4//1
f 5//2 6//2 7//2 8//2
f 8//3 7//3 9//3 10//3
f 10//4 9//4 11//4 12//4
f 12//5 11//5 13//5 14//5
f 14//6 13//6 15//6 16//6
f 16//7 15//7 17//7 18//7
f 18//1 17//1 19//1 20//1
f 20//1 19//1 21//1 22//1
f 22//1 21//1 2//1 1//1
f 23//8 24//8 25//8 26//8
f 24//9 27//9 28//9 25//9
f 27//10 29//10 30//10 28//10
f 29//11 31//11 32//11 30//11
f 31//12 33//12 34//12 32//12
f 33//13 35//13 36//13 34//13
f 35//14 37//14 38//14 36//14
f 37//15 39//15 40//15 38//15
f 39//16 41//16 42//16 40//16
f 41//17 43//17 44//17 42//17
f 43//18 45//18 46//18 44//18
f 45//1 47//1 48//1 46//1
f 47//19 49//19 50//19 48//19
f 49//20 51//20 52//20 50//20
f 51//21 53//21 54//21 52//21
f 53//22 55//22 56//22 54//22
f 55//23 57//23 58//23 56//23
f 57//24 22//24 1//24 58//24
f 59//25 60//25 24//25 23//25
f 60//26 61//26 27//26 24//26
f 61//27 62//27 29//27 27//27
f 62//28 63//28 31//28 29//28
f 63//29 64//29 33//29 31//29
f 64//30 65//30 35//30 33//30
f 65//31 66//31 37//31 35//31
f 66//32 67//32 39//32 37//32
f 67//33 68//33 41//33 39//33
f 68//34 69//34 43//34 41//34
f 69//35 70//35 45//35 43//35
f 70//36 71//36 47//36 45//36
f 71//37 72//37 49//37 47//37
f 72//38 73//38 51//38 49//38
f 73//39 74//39 53//39 51//39
f 74//40 75//40 55//40 53//40
f 75//41 76//41 57//41 55//41
f 76//42 20//42 22//42 57//42
f 77//43 78//43 60//43 59//43
f 78//44 79//44 61//44 60//44
f 79//45 80//45 62//45 61//45
f 80//46 81//46 63//46 62//46
f 81//47 82//47 64//47 63//47
f 82//48 83//48 65//48 64//48
f 83//49 84//49 66//49 65//49
f 84//50 85//50 67//50 66//50
f 85//51 86//51 68//51 67//51
f 86//52 87//52 69//52 68//52
f 87//53 88//53 70//53 69//53
f 88//54 89//54 71//54 70//54
f 89//55 90//55 72//55 71//55
f 90//56 91//56 73//56 72//56
f 91//57 92//57 74//57 73//57
f 92//58 93//58 75//58 74//58
f 93//59 94//59 76//59 75//59
f 94//60 18//60 20//60 76//60
f 95//61 96//61 78//61 77//61
f 96//62 97//62 79//62 78//62
f 97//63 98//63 80//63 79//63
f 98//64 99//64 81//64 80//64
f 99//65 100//65 82//65 81//65
f 100//66 101//66 83//66 82//66
f 101//67 102//67 84//67 83//67
f 102//68 103//68 85//68 84//68
f 103//69 104//69 86//69 85//69
f 104//70 105//70 87//70 86//70
f 105//71 106//71 88//71 87//71
f 106//72 107//72 89//72 88//72
f 107//73 108//73 90//73 89//73
f 108//74 109//74 91//74 90//74
f 109//75 110//75 92//75 91//75
f 110//76 111//76 93//76 92//76
f 111//77 112//77 94//77 93//77
f 112//78 16//78 18//78 94//78
f 113//79 114//79 96//79 95//79
f 114//80 115//80 97//80 96//80
f 115//81 116//81 98//81 97//81
f 116//82 117//82 99//82 98//82
f 117//83 118//83 100//83 99//83
f 118//84 119//84 101//84 100//84
f 119//85 120//85 102//85 101//85
f 120//86 121//86 103//86 102//86
f 121//87 122//87 104//87 103//87
f 122//88 123//88 105//88 104//88
f 123//89 124//89 106//89 105//89
f 124//90 125//90 107//90 106//90
f 125//91 126//91 108//91 107//91
f 126//92 127//92 109//92 108//92
f 127//93 128//93 110//93 109//93
f 128//94 129//94 111//94 110//94
f 129//95 130//95 112//95 111//95
f 130//96 14//96 16//96 112//96
f 131//97 132//97 114//97 113//97
f 132//98 133//98 115//98 114//98
f 133//99 134//99 116//99 115//99
f 134//100 135//100 117//100 116//100
f 135//101 136//101 118//101 117//101
f 136//102 137//102 119//102 118//102
f 137//103 138//103 120//103 119//103
f 138//104 139//104 121//104 120//104
f 139//105 140//105 122//105 121//105
f 140//106 141//106 123//106 122//106
f 141//107 142//107 124//107 123//107
f 142//108 143//108 125//108 124//108
f 143//109 144//109 126//109 125//109
f 144//110 145//110 127//110 126//110
f 145//111 146//111 128//111 127//111
f 146//112 147//112 129//112 128//112
f 147//113 148//113 130//113 129//113
f 148//114 12//114 14//114 130//114
f 149//115 150//115 132//115 131//115
f 150//116 151//116 133//116 132//116
f 151//117 152//117 134//117 133//117
f 152//118 153//118 135//118 134//118
f 153//119 154//119 136//119 135//119
f 154//120 155//120 137//120 136//120
f 155//121 156//121 138//121 137//121
f 156//122 157//122 139//122 138//122
f 157//123 158//123 140//123 139//123
f 158//124 159//124 141//124 140//124
f 159//125 160//125 142//125 141//125
f 160//126 161//126 143//126 142//126
f 161//127 162//127 144//127 143//127
f 162//128 163//128 145//128 144//128
f 163//129 164//129 146//129 145//129
f 164//130 165//130 147//130 146//130
f 165//131 166//131 148//131 147//131
f 166//132 10//132 12//132 148//132
f 167//133 168//133 150//133 149//133
f 168//134 169//134 151//134 150//134
f 169//135 170//135 152//135 151//135
f 170//136 171//136 153//136 152//136
f 171//137 172//137 154//137 153//137
f 172//138 173//138 155//138 154//138
f 173//139 174//139 156//139 155//139
f 174//140 175//140 157//140 156//140
f 175//141 176//141 158//141 157//141
f 176//142 177//142 159//142 158//142
f 177//143 178//143 160//143 159//143
f 178//144 179//144 161//144 160//144
f 179//145 180//145 162//145 161//145
f 180//146 181//146 163//146 162//146
f 181//147 182//147 164//147 163//147
f 182//148 183//148 165//148 164//148
f 183//149 184//149 166//149 165//149
f 184//150 8//150 10//150 166//150
f 185//151 186//151 168//151 167//151
f 186//152 187//152 169//152 168//152
f 187//153 188//153 170//153 169//153
f 188//154 189//154 171//154 170//154
f 189//155 190//155 172//155 171//155
f 190//156 191//156 173//156 172//156
f 191//157 192//157 174//157 173//157
f 192//158 193//158 175//158 174//158
f 193//159 194//159 176//159 175//159
f 194//160 195//160 177//160 176//160
f 195//161 196//161 178//161 177//161
f 196//162 197//162 179//162 178//162
f 197//163 198//163 180//163 179//163
f 198//164 199//164 181//164 180//164
f 199//165 200//165 182//165 181//165
f 200//166 201//166 183//166 182//166
f 201//167 202//167 184//167 183//167
f 202//168 5//168 8//168 184//168
f 26//169 25//169 203//169 204//169
f 25//170 28//170 205//170 203//170
f 28//171 30//171 206//171 205//171
f 30//172 32//172 207//172 206//172
f 32//173 34//173 208//173 207//173
f 34//174 36//174 209//174 208//174
f 36//175 38//175 210//175 209//175
f 38//176 40//176 211//176 210//176
f 40//177 42//177 212//177 211//177
f 42//178 44//178 213//178 212//178
f 44//179 46//179 214//179 213//179
f 46//1 48//1 215//1 214//1
f 48//180 50//180 216//180 215//180
f 50//181 52//181 217//181 216//181
f 52//182 54//182 218//182 217//182
f 54//183 56//183 219//183 218//183
f 56//184 58//184 220//184 219//184
f 58//185 1//185 4//185 220//185
