# Blender v2.77 (sub 0) OBJ File: 'Toll_langfang_west.blend'
# www.blender.org
mtllib Toll_6out_road.mtl
o Plane.003_Plane.002
v -54.612728 0.000000 -16.094069
v -54.612728 0.000000 -10.722429
v -54.612728 0.000000 -5.350784
v -54.612728 0.000000 0.020861
v -54.612728 0.000000 5.392504
v -54.612728 0.000000 10.764147
v -54.612728 0.000000 16.135790
v 46.895344 0.000000 16.135790
v 46.895344 0.000000 10.764147
v 46.895344 0.000000 5.392502
v 46.895344 0.000000 0.020859
v 46.895344 0.000000 -5.350784
v 46.895344 0.000000 -10.722429
v 46.895344 0.000000 -16.094069
v -54.612728 0.000000 16.135790
v 46.895344 0.000000 16.135790
v 46.895344 0.000000 17.478701
v -54.612728 0.000000 17.478701
vt 0.1234 0.9997
vt 0.1234 0.0003
vt 0.2461 0.0003
vt 0.2461 0.9997
vt 0.3689 0.0003
vt 0.3689 0.9997
vt 0.4916 0.0003
vt 0.4916 0.9997
vt 0.6143 0.0003
vt 0.6143 0.9997
vt 0.7371 0.0003
vt 0.7371 0.9997
vt 0.8598 0.0003
vt 0.8598 0.9997
vt 0.2155 0.9997
vt 0.2155 0.0003
vt 0.2461 0.0003
vt 0.2461 0.9997
vn 0.0000 1.0000 0.0000
usemtl None
s off
f 7/1/1 8/2/1 9/3/1 6/4/1
f 6/4/1 9/3/1 10/5/1 5/6/1
f 5/6/1 10/5/1 11/7/1 4/8/1
f 4/8/1 11/7/1 12/9/1 3/10/1
f 3/10/1 12/9/1 13/11/1 2/12/1
f 2/12/1 13/11/1 14/13/1 1/14/1
f 18/15/1 17/16/1 16/17/1 15/18/1
